# xmcd
#
# Track frame offsets: 
#        150
#        5801
#        23881
#        48865
#        64016
#        80930
#        103079
#        124137
#        132235
#        151728
#        171665
#        193134
#        214257
#        235121
#
# Disc length: 3462 seconds
#
# Revision: 0
# Processed by: cddbd v1.5.2PL0 Copyright (c) Steve Scherf et al.
# Submitted via: ExactAudioCopy v0.95b4
#
DISCID=c80d840e
DTITLE=J-shin - Born to sing
DYEAR=1900
DGENRE=R&B
TTITLE0=Don't wanna fight (intro)
TTITLE1=What are you talkin' about
TTITLE2=Something goin' on
TTITLE3=Hooked on you
TTITLE4=Take no more
TTITLE5=May be I
TTITLE6=What's on your mind
TTITLE7=(interlude) Emotional
TTITLE8=Emotional
TTITLE9=Seperated
TTITLE10=That kinda man
TTITLE11=Why you lie
TTITLE12=Call it out
TTITLE13=Something goin' on (remix)
EXTD=
EXTT0=
EXTT1=
EXTT2=
EXTT3=
EXTT4=
EXTT5=
EXTT6=
EXTT7=
EXTT8=
EXTT9=
EXTT10=
EXTT11=
EXTT12=
EXTT13=
PLAYORDER=
